<?xml version="1.0" standalone="no"?>
<svg version="1.0" xmlns="http://www.w3.org/2000/svg"
 width="1080.000000pt" height="1080.000000pt" viewBox="0 0 1080.000000 1080.000000"
 preserveAspectRatio="xMidYMid meet">
<g transform="translate(0.000000,1080.000000) scale(0.100000,-0.100000)"
fill="#FAFAFA" stroke="none">
<path d="M5120 10743 c-457 -24 -1008 -130 -1435 -276 -463 -158 -951 -408
-1351 -693 -1161 -824 -1941 -2060 -2178 -3449 -56 -333 -61 -399 -61 -855 0
-281 4 -467 13 -550 45 -426 123 -793 252 -1180 218 -655 544 -1231 1008
-1780 125 -148 413 -437 567 -569 608 -520 1307 -890 2090 -1105 243 -67 528
-120 815 -152 194 -21 719 -30 929 -15 704 50 1351 224 1976 531 1076 529
1925 1382 2451 2465 503 1034 651 2213 423 3360 -138 693 -409 1341 -810 1935
-437 648 -1012 1190 -1694 1598 -302 180 -733 376 -1060 482 -406 131 -888
223 -1315 250 -149 9 -478 11 -620 3z m527 -2484 c-11 -43 -612 -1568 -618
-1569 -3 0 -43 56 -89 125 l-82 124 -78 -39 c-117 -59 -331 -205 -455 -312
-291 -250 -476 -534 -548 -842 -28 -120 -29 -367 -3 -499 41 -212 141 -445
284 -662 105 -161 182 -256 326 -404 141 -145 258 -245 379 -325 100 -65 151
-90 257 -122 60 -18 68 -23 41 -23 -18 -1 -374 -10 -790 -22 -416 -11 -774
-18 -796 -14 -127 18 -333 140 -466 275 -250 254 -406 632 -469 1136 -18 147
-16 558 4 689 82 536 308 1047 653 1481 137 172 367 379 611 552 95 68 268
172 284 172 5 0 -43 64 -107 142 -63 78 -115 146 -115 150 0 4 401 8 891 8
l891 0 -5 -21z m1371 -1106 l174 -6 -74 -21 c-103 -31 -170 -70 -260 -155
-125 -118 -252 -327 -331 -546 -14 -38 -133 -341 -265 -671 -133 -331 -290
-729 -350 -885 -121 -314 -164 -414 -251 -588 -138 -277 -249 -429 -347 -472
-43 -19 -43 -19 -106 5 -227 85 -431 213 -600 375 -97 93 -261 282 -275 317
-2 7 26 77 62 156 207 441 418 1006 645 1723 72 226 190 434 320 565 133 133
244 184 431 199 139 10 988 13 1227 4z m538 -122 c88 -17 284 -190 403 -358
187 -262 288 -593 322 -1058 42 -578 -78 -1151 -337 -1602 -102 -178 -190
-290 -353 -453 -207 -207 -419 -382 -778 -641 l-61 -45 104 -144 104 -145
-892 -3 c-490 -1 -893 -1 -894 1 -2 2 532 1328 630 1562 2 6 53 -38 113 -98
l109 -107 86 51 c283 169 546 425 683 665 119 208 177 461 178 774 0 237 -29
402 -100 570 -45 106 -90 178 -155 246 -59 62 -59 55 19 203 226 433 519 640
819 582z"/>
</g>
</svg>
