<?xml version="1.0" standalone="no"?>
<!DOCTYPE svg PUBLIC "-//W3C//DTD SVG 20010904//EN"
 "http://www.w3.org/TR/2001/REC-SVG-20010904/DTD/svg10.dtd">
<svg version="1.0" xmlns="http://www.w3.org/2000/svg"
 width="2000.000000pt" height="575.000000pt" viewBox="0 0 2000.000000 575.000000"
 preserveAspectRatio="xMidYMid meet">

<g transform="translate(0.000000,575.000000) scale(0.100000,-0.100000)"
fill="#0074D9" stroke="none">
<path d="M1647 5728 c6 -7 60 -75 121 -150 l112 -138 -79 -40 c-240 -120 -645
-456 -833 -690 -338 -422 -568 -943 -649 -1471 -19 -119 -23 -187 -23 -389 0
-253 10 -360 55 -578 110 -536 374 -932 732 -1097 144 -66 110 -64 858 -44
371 10 726 19 789 19 l115 1 -71 23 c-196 64 -447 249 -677 501 -472 519 -667
1071 -546 1553 107 427 455 825 978 1118 56 31 103 55 105 53 2 -2 40 -60 85
-127 46 -68 84 -122 86 -120 2 2 573 1454 616 1566 l9 22 -896 0 c-716 0 -894
-3 -887 -12z"/>
<path d="M11700 4944 c-204 -25 -402 -130 -507 -268 -106 -141 -133 -238 -140
-493 l-5 -183 -139 0 -139 0 0 -165 0 -165 140 0 140 0 0 -870 0 -870 230 0
230 0 0 870 0 870 280 0 280 0 0 165 0 165 -281 0 -281 0 4 188 c4 214 11 238
92 309 85 75 213 87 366 37 47 -16 89 -28 94 -29 5 0 30 78 56 174 l48 173
-54 24 c-115 51 -302 81 -414 68z"/>
<path d="M12420 3430 l0 -1500 230 0 230 0 0 1500 0 1500 -230 0 -230 0 0
-1500z"/>
<path d="M7090 3345 l0 -1415 235 0 235 0 0 1415 0 1415 -235 0 -235 0 0
-1415z"/>
<path d="M3574 4600 c-243 -17 -397 -116 -557 -356 -92 -138 -147 -261 -218
-481 -218 -684 -419 -1219 -610 -1628 -43 -93 -79 -175 -79 -181 0 -17 134
-181 219 -267 189 -194 441 -358 661 -428 68 -22 69 -22 110 -4 140 63 343
423 567 1004 174 453 698 1762 735 1836 126 251 286 418 460 479 l67 23 -151
6 c-194 9 -1072 6 -1204 -3z"/>
<path d="M5100 4472 c-109 -37 -204 -96 -298 -186 -98 -93 -264 -341 -323
-484 l-20 -47 47 -50 c120 -129 200 -305 240 -530 25 -136 25 -458 1 -600 -59
-342 -172 -559 -422 -811 -134 -135 -283 -253 -434 -344 l-86 -52 -106 112
-106 112 -47 -114 c-25 -62 -169 -417 -320 -788 l-273 -675 449 -3 c247 -1
650 -1 894 0 l445 3 -105 147 -105 147 139 100 c325 236 684 545 825 710 483
569 678 1384 539 2256 -47 297 -146 555 -291 757 -72 99 -208 235 -301 300
l-74 50 -106 4 c-85 3 -118 0 -162 -14z"/>
<path d="M9345 4076 c-256 -42 -462 -171 -568 -358 -12 -21 -25 -38 -29 -38
-5 0 -8 88 -8 195 l0 195 -230 0 -230 0 0 -1070 0 -1070 229 0 230 0 3 603 c4
676 2 655 81 817 32 65 59 103 117 161 125 127 261 176 455 166 202 -11 339
-93 419 -253 56 -112 56 -112 56 -831 l0 -663 235 0 235 0 0 680 c0 417 -4
718 -11 777 -40 359 -227 590 -545 674 -101 27 -323 34 -439 15z"/>
<path d="M14305 4079 c-102 -13 -238 -54 -333 -99 -318 -151 -514 -419 -572
-782 -20 -126 -8 -390 23 -510 50 -191 137 -341 277 -478 132 -130 303 -221
497 -266 109 -25 390 -30 515 -9 237 39 446 139 610 293 l49 46 -122 122 -121
122 -79 -64 c-85 -69 -209 -133 -304 -159 -97 -26 -275 -31 -375 -11 -163 33
-302 122 -397 254 -48 68 -102 186 -118 260 l-7 32 818 0 817 0 -6 203 c-9
323 -63 520 -192 702 -120 169 -295 279 -520 327 -106 22 -355 32 -460 17z
m371 -370 c193 -59 323 -196 374 -395 11 -42 20 -94 20 -116 l0 -38 -615 0
c-338 0 -615 4 -615 8 0 5 9 43 19 85 67 259 256 438 505 478 80 12 235 2 312
-22z"/>
<path d="M18850 4079 c-166 -19 -327 -67 -485 -146 -70 -35 -188 -101 -213
-118 -2 -2 172 -281 184 -294 1 -2 29 13 61 32 157 94 321 158 456 176 106 15
158 14 263 -4 245 -43 374 -201 374 -457 l0 -48 -344 0 c-365 0 -497 -9 -623
-40 -243 -62 -424 -228 -479 -441 -22 -83 -22 -234 0 -319 59 -235 245 -413
501 -482 106 -28 358 -30 479 -4 172 38 300 99 409 196 l57 52 0 -126 0 -126
225 0 226 0 -4 778 c-3 871 0 829 -79 991 -31 66 -57 101 -117 160 -90 89
-159 132 -275 172 -154 53 -399 72 -616 48z m638 -1317 c-3 -120 -6 -133 -35
-193 -81 -164 -259 -272 -488 -298 -169 -20 -315 15 -405 96 -69 62 -92 110
-98 204 -9 148 50 239 183 284 85 28 150 33 504 34 l343 1 -4 -128z"/>
<path d="M15740 4064 c0 -3 155 -235 345 -515 190 -281 345 -514 345 -519 0
-5 -169 -254 -375 -552 l-376 -543 248 -3 c136 -1 252 -1 258 2 6 2 132 182
280 399 149 218 272 396 276 397 3 0 120 -180 260 -400 l254 -400 263 0 c144
0 262 2 262 6 0 3 -163 247 -362 542 -199 295 -362 544 -362 552 0 8 148 238
328 510 180 272 332 503 337 513 9 16 -5 17 -243 16 l-253 0 -239 -370 c-131
-203 -242 -369 -245 -369 -3 0 -112 167 -241 370 l-235 369 -262 1 c-145 0
-263 -3 -263 -6z"/>
<path d="M8858 1160 c-25 -26 -29 -36 -24 -62 8 -40 21 -55 68 -79 21 -11 45
-31 54 -44 16 -24 15 -27 -1 -45 -20 -22 -56 -26 -87 -9 -16 9 -23 8 -29 -2
-14 -22 -11 -27 27 -39 48 -16 99 -5 124 27 39 50 17 99 -64 147 -46 27 -60
52 -44 80 10 18 73 22 83 5 5 -6 12 -4 20 8 12 16 11 20 -8 30 -40 22 -86 16
-119 -17z"/>
<path d="M11254 1183 c-19 -13 -34 -50 -34 -82 0 -21 -5 -31 -15 -31 -8 0 -15
-7 -15 -15 0 -8 7 -15 15 -15 12 0 15 -16 15 -80 0 -73 2 -80 20 -80 17 0 19
8 22 78 3 71 5 77 26 80 31 5 28 32 -4 32 -23 0 -25 3 -22 38 3 32 7 37 31 40
20 3 27 8 25 20 -3 18 -45 27 -64 15z"/>
<path d="M7060 1030 l0 -150 70 0 c56 0 70 3 70 15 0 11 -12 15 -45 15 l-45 0
0 135 0 135 -25 0 -25 0 0 -150z"/>
<path d="M8010 1030 c0 -143 1 -150 20 -150 19 0 20 7 20 150 0 143 -1 150
-20 150 -19 0 -20 -7 -20 -150z"/>
<path d="M9310 1030 c0 -143 1 -150 20 -150 19 0 20 7 20 150 0 143 -1 150
-20 150 -19 0 -20 -7 -20 -150z"/>
<path d="M10840 1030 c0 -143 1 -150 20 -150 19 0 20 7 20 150 0 143 -1 150
-20 150 -19 0 -20 -7 -20 -150z"/>
<path d="M12320 1030 c0 -143 1 -150 20 -150 18 0 20 7 20 54 l0 53 41 7 c58
9 89 44 89 100 0 62 -31 86 -111 86 l-59 0 0 -150z m108 104 c45 -31 17 -104
-40 -104 -28 0 -28 1 -28 60 0 56 2 60 23 60 12 0 33 -7 45 -16z"/>
<path d="M13290 1030 c0 -143 1 -150 20 -150 12 0 20 7 20 16 0 14 1 14 16 0
63 -63 167 6 149 100 -11 63 -91 95 -143 58 l-22 -15 0 70 c0 64 -2 71 -20 71
-19 0 -20 -7 -20 -150z m138 -6 c26 -18 31 -84 7 -104 -20 -17 -63 -16 -80 1
-28 29 -29 66 -1 93 29 30 43 32 74 10z"/>
<path d="M13670 1030 c0 -143 1 -150 20 -150 19 0 20 7 20 150 0 143 -1 150
-20 150 -19 0 -20 -7 -20 -150z"/>
<path d="M7244 1145 c-8 -19 3 -35 26 -35 19 0 34 25 24 41 -8 14 -44 10 -50
-6z"/>
<path d="M7743 1144 c-3 -8 -1 -20 5 -26 16 -16 42 -2 42 22 0 24 -38 28 -47
4z"/>
<path d="M9698 1152 c-14 -3 -18 -13 -18 -43 0 -32 -3 -39 -20 -39 -11 0 -20
-6 -20 -14 0 -7 9 -16 20 -19 18 -5 20 -14 20 -81 0 -69 2 -76 20 -76 18 0 20
7 20 76 0 67 2 76 20 81 26 7 26 33 1 33 -16 0 -20 8 -23 43 -2 34 -6 42 -20
39z"/>
<path d="M9807 1147 c-8 -21 8 -39 29 -35 27 5 25 42 -2 46 -12 2 -24 -3 -27
-11z"/>
<path d="M11357 1147 c-8 -21 8 -39 29 -35 27 5 25 42 -2 46 -12 2 -24 -3 -27
-11z"/>
<path d="M11722 1138 c4 -30 43 -33 43 -3 0 13 -8 21 -23 23 -20 3 -23 0 -20
-20z"/>
<path d="M13173 1144 c-3 -8 -1 -20 5 -26 16 -16 42 -2 42 22 0 24 -38 28 -47
4z"/>
<path d="M13553 1144 c-3 -8 -1 -20 5 -26 16 -16 42 -2 42 22 0 24 -38 28 -47
4z"/>
<path d="M13783 1144 c-3 -8 -1 -20 5 -26 16 -16 42 -2 42 22 0 24 -38 28 -47
4z"/>
<path d="M13938 1152 c-14 -3 -18 -13 -18 -43 0 -32 -3 -39 -20 -39 -11 0 -20
-6 -20 -14 0 -7 9 -16 20 -19 18 -5 20 -14 20 -81 0 -69 2 -76 20 -76 18 0 20
7 20 80 0 73 2 80 20 80 11 0 20 7 20 15 0 8 -9 15 -19 15 -16 0 -20 8 -23 43
-2 34 -6 42 -20 39z"/>
<path d="M14044 1145 c-8 -19 3 -35 26 -35 19 0 34 25 24 41 -8 14 -44 10 -50
-6z"/>
<path d="M7880 1110 c0 -33 -3 -40 -20 -40 -11 0 -20 -6 -20 -14 0 -7 9 -16
20 -19 18 -5 20 -14 20 -81 0 -69 2 -76 20 -76 18 0 20 7 20 80 0 73 2 80 20
80 11 0 20 7 20 15 0 8 -9 15 -20 15 -17 0 -20 7 -20 40 0 33 -3 40 -20 40
-17 0 -20 -7 -20 -40z"/>
<path d="M11850 1110 c0 -29 -4 -40 -15 -40 -8 0 -15 -6 -15 -14 0 -8 7 -16
15 -20 11 -4 15 -23 15 -81 0 -68 2 -75 20 -75 17 0 19 8 22 78 3 71 5 77 26
80 31 5 29 32 -3 32 -22 0 -25 4 -25 40 0 33 -3 40 -20 40 -17 0 -20 -7 -20
-40z"/>
<path d="M7250 975 c0 -88 1 -95 20 -95 19 0 20 7 20 95 0 88 -1 95 -20 95
-19 0 -20 -7 -20 -95z"/>
<path d="M7360 975 c0 -88 1 -95 20 -95 18 0 20 7 20 54 0 79 50 132 88 94 7
-7 12 -40 12 -80 0 -61 2 -68 20 -68 18 0 20 7 20 60 0 47 4 64 20 80 48 48
80 13 80 -86 0 -48 2 -54 21 -54 21 0 21 4 17 81 -4 65 -9 85 -23 95 -25 19
-65 18 -93 -2 -20 -14 -24 -14 -38 0 -20 20 -73 20 -102 0 -20 -14 -22 -14
-22 0 0 9 -9 16 -20 16 -19 0 -20 -7 -20 -95z"/>
<path d="M7750 975 c0 -88 1 -95 20 -95 19 0 20 7 20 95 0 88 -1 95 -20 95
-19 0 -20 -7 -20 -95z"/>
<path d="M8139 1041 c-22 -23 -29 -39 -29 -69 0 -73 54 -112 135 -96 49 9 39
30 -13 26 -31 -2 -46 2 -61 17 -34 34 -25 41 49 41 l70 0 0 33 c0 75 -94 105
-151 48z m99 -13 c7 -7 12 -20 12 -30 0 -15 -8 -18 -44 -18 -52 0 -61 9 -40
38 17 24 53 29 72 10z"/>
<path d="M8368 1059 c-11 -6 -18 -22 -18 -38 0 -30 18 -50 64 -72 16 -8 31
-19 33 -26 6 -17 -38 -26 -69 -14 -21 8 -28 7 -32 -5 -11 -28 62 -43 108 -22
53 24 42 73 -23 103 -28 12 -41 24 -41 38 0 17 5 19 41 14 34 -4 40 -3 37 11
-4 20 -73 28 -100 11z"/>
<path d="M8556 1051 c-29 -32 -17 -63 36 -91 27 -14 48 -31 48 -38 0 -20 -30
-26 -62 -14 -24 9 -30 8 -35 -4 -8 -20 -1 -25 44 -30 105 -13 127 83 26 117
-46 15 -42 44 7 43 34 0 54 12 44 28 -11 17 -91 8 -108 -11z"/>
<path d="M9093 1055 c-27 -19 -46 -75 -38 -108 19 -72 123 -99 171 -44 56 65
11 167 -73 167 -21 0 -48 -7 -60 -15z m97 -35 c11 -11 20 -33 20 -50 0 -31
-30 -70 -54 -70 -49 0 -77 80 -41 120 23 25 50 25 75 0z"/>
<path d="M9420 1001 c0 -38 4 -81 10 -95 13 -35 55 -44 94 -22 20 11 32 14 34
7 2 -6 10 -11 18 -11 11 0 14 20 14 95 0 88 -1 95 -20 95 -18 0 -20 -7 -20
-69 0 -61 -3 -72 -22 -85 -28 -20 -33 -20 -52 0 -12 11 -16 35 -16 85 0 62 -2
69 -20 69 -18 0 -20 -7 -20 -69z"/>
<path d="M9810 975 c0 -88 1 -95 20 -95 19 0 20 7 20 95 0 88 -1 95 -20 95
-19 0 -20 -7 -20 -95z"/>
<path d="M9957 1059 c-29 -17 -49 -68 -43 -105 8 -39 57 -84 92 -84 33 0 81
25 94 49 35 66 -14 151 -87 151 -21 0 -46 -5 -56 -11z m93 -39 c11 -11 20 -33
20 -50 0 -31 -30 -70 -53 -70 -43 0 -77 63 -56 103 23 42 57 49 89 17z"/>
<path d="M10170 975 c0 -88 1 -95 20 -95 18 0 20 7 20 60 0 47 4 64 20 80 48
48 80 13 80 -86 0 -47 2 -54 20 -54 18 0 20 7 20 59 0 62 -13 110 -33 123 -20
13 -61 9 -85 -8 -20 -14 -22 -14 -22 0 0 9 -9 16 -20 16 -19 0 -20 -7 -20 -95z"/>
<path d="M10430 1052 c-35 -29 -21 -67 36 -94 52 -26 57 -53 9 -52 -17 0 -36
2 -44 5 -8 2 -16 -4 -19 -13 -2 -13 7 -18 42 -23 60 -9 96 12 96 55 0 26 -6
33 -47 53 -60 28 -64 52 -8 53 28 0 40 5 40 15 0 23 -77 24 -105 1z"/>
<path d="M10960 975 c0 -88 1 -95 20 -95 18 0 20 7 20 60 0 47 4 64 20 80 48
48 80 13 80 -86 0 -47 2 -54 20 -54 18 0 20 7 20 59 0 62 -13 110 -33 123 -21
13 -70 9 -89 -9 -17 -15 -18 -15 -18 0 0 10 -8 17 -20 17 -19 0 -20 -7 -20
-95z"/>
<path d="M11360 975 c0 -88 1 -95 20 -95 19 0 20 7 20 95 0 88 -1 95 -20 95
-19 0 -20 -7 -20 -95z"/>
<path d="M11470 975 c0 -86 2 -95 19 -95 16 0 19 9 23 60 4 62 26 100 58 100
30 0 40 -23 40 -92 0 -61 2 -68 20 -68 18 0 20 7 20 78 0 64 -4 82 -18 95 -23
21 -75 22 -92 2 -7 -8 -16 -15 -21 -15 -5 0 -9 7 -9 15 0 8 -9 15 -20 15 -19
0 -20 -7 -20 -95z"/>
<path d="M11720 975 c0 -88 1 -95 20 -95 19 0 20 7 20 95 0 88 -1 95 -20 95
-19 0 -20 -7 -20 -95z"/>
<path d="M12003 1046 c-24 -21 -28 -32 -28 -74 0 -78 47 -113 131 -97 47 8 39
31 -9 27 -45 -4 -77 12 -77 38 0 18 7 20 64 20 36 0 67 4 70 8 10 16 -15 82
-34 92 -34 18 -87 12 -117 -14z m94 -14 c6 -4 13 -16 15 -27 2 -17 -3 -20 -41
-23 -55 -4 -70 9 -42 37 21 21 47 26 68 13z"/>
<path d="M12567 1050 c-52 -41 -44 -136 14 -165 103 -54 201 74 120 156 -37
36 -94 40 -134 9z m93 -20 c24 -13 34 -57 20 -91 -30 -71 -122 -25 -105 52 10
43 46 60 85 39z"/>
<path d="M12801 1051 c-12 -12 -21 -27 -21 -35 0 -20 28 -46 66 -62 41 -17 48
-28 28 -44 -11 -10 -23 -11 -49 -3 -31 10 -45 3 -45 -22 0 -2 20 -7 45 -11 59
-8 95 13 95 56 0 26 -7 33 -51 55 -58 30 -59 50 -3 51 56 1 54 28 -3 32 -32 2
-47 -2 -62 -17z"/>
<path d="M12998 1059 c-11 -6 -18 -22 -18 -38 0 -31 19 -52 68 -71 17 -7 32
-19 32 -26 0 -19 -40 -27 -73 -15 -24 9 -27 8 -27 -9 0 -14 9 -21 34 -26 48
-9 89 7 100 39 12 33 -10 61 -61 78 -46 15 -42 44 7 43 37 0 57 15 37 28 -17
11 -79 9 -99 -3z"/>
<path d="M13180 975 c0 -88 1 -95 20 -95 19 0 20 7 20 95 0 88 -1 95 -20 95
-19 0 -20 -7 -20 -95z"/>
<path d="M13560 975 c0 -88 1 -95 20 -95 19 0 20 7 20 95 0 88 -1 95 -20 95
-19 0 -20 -7 -20 -95z"/>
<path d="M13790 975 c0 -88 1 -95 20 -95 19 0 20 7 20 95 0 88 -1 95 -20 95
-19 0 -20 -7 -20 -95z"/>
<path d="M14050 975 c0 -88 1 -95 20 -95 19 0 20 7 20 95 0 88 -1 95 -20 95
-19 0 -20 -7 -20 -95z"/>
<path d="M14178 1040 c-27 -28 -30 -36 -25 -76 8 -73 54 -104 133 -89 50 9 38
31 -14 27 -31 -2 -46 2 -61 17 -34 34 -25 41 49 41 l70 0 0 35 c0 77 -92 104
-152 45z m106 -22 c21 -29 12 -38 -39 -38 -52 0 -63 12 -35 40 26 26 55 26 74
-2z"/>
<path d="M14408 1059 c-11 -6 -18 -22 -18 -38 0 -31 19 -52 68 -71 17 -7 32
-19 32 -26 0 -19 -40 -27 -73 -15 -24 9 -27 8 -27 -9 0 -14 9 -21 34 -26 48
-8 89 7 100 39 12 33 -4 53 -56 74 -50 20 -49 48 2 47 37 0 57 15 37 28 -17
11 -79 9 -99 -3z"/>
<path d="M10615 920 c-4 -6 -4 -24 0 -40 3 -16 1 -38 -5 -50 -14 -26 -6 -37
15 -20 24 20 41 86 25 105 -15 17 -26 19 -35 5z"/>
<path d="M14590 914 c-11 -12 -11 -18 2 -30 16 -16 48 -9 48 10 0 13 -20 36
-31 36 -4 0 -12 -7 -19 -16z"/>
</g>
</svg>
